<?xml version="1.0" standalone="no"?>
<!DOCTYPE svg PUBLIC "-//W3C//DTD SVG 20010904//EN"
 "http://www.w3.org/TR/2001/REC-SVG-20010904/DTD/svg10.dtd">
<svg version="1.0" xmlns="http://www.w3.org/2000/svg"
 width="800.000000pt" height="600.000000pt" viewBox="0 0 800.000000 600.000000"
 preserveAspectRatio="xMidYMid meet">

<g transform="translate(0.000000,600.000000) scale(0.100000,-0.100000)"
fill="#000000" stroke="none">
<path d="M5285 5399 c-19 -10 -30 -95 -179 -1382 -87 -755 -160 -1374 -162
-1376 -2 -2 -5 -2 -7 0 -2 2 -88 351 -191 774 -103 424 -192 787 -197 808 -12
47 -64 77 -102 60 -21 -10 -37 -63 -166 -554 -78 -299 -144 -545 -145 -546 -6
-6 -1346 -46 -1352 -41 -3 4 -17 65 -29 135 -50 287 -114 468 -199 561 -11 13
-43 36 -71 50 -65 34 -164 35 -245 4 -118 -46 -303 -182 -620 -457 -278 -241
-416 -334 -525 -356 -128 -25 -230 86 -345 379 -18 45 -35 82 -37 82 -15 0
-103 -36 -103 -41 0 -4 20 -58 46 -120 129 -323 235 -427 425 -417 141 8 297
104 621 382 340 291 454 377 570 431 192 90 291 -62 378 -581 17 -98 31 -178
33 -179 1 0 348 11 770 25 518 18 771 30 775 37 4 6 61 217 126 467 66 251
123 453 126 449 4 -5 101 -392 215 -860 l209 -853 33 -6 c43 -8 81 2 86 24 3
9 63 519 134 1132 70 613 130 1102 131 1085 2 -16 32 -752 66 -1634 l62 -1603
23 -19 c16 -13 39 -19 72 -19 42 0 49 3 54 22 2 13 75 574 161 1248 85 674
158 1232 161 1240 5 13 40 -209 188 -1195 16 -105 19 -112 47 -128 34 -20 83
-22 94 -5 4 6 64 228 133 492 l126 481 763 3 762 2 0 62 0 61 -774 -6 c-749
-5 -775 -6 -813 -26 l-39 -20 -99 -378 c-82 -312 -101 -373 -107 -348 -13 48
-218 1431 -218 1470 0 73 -50 105 -105 69 -20 -13 -24 -24 -24 -62 0 -40 -295
-2370 -305 -2412 -2 -8 -4 1 -5 21 0 20 -30 791 -66 1714 -36 922 -65 1715
-65 1761 0 72 -3 85 -19 94 -24 12 -49 12 -76 -1z"/>
<path d="M716 4939 c-75 -26 -130 -63 -194 -133 -74 -81 -97 -146 -97 -271 0
-87 4 -109 29 -170 64 -158 238 -374 492 -610 251 -234 345 -316 358 -313 21
5 404 357 517 476 177 186 275 322 330 457 20 50 24 77 24 160 0 125 -23 190
-97 271 -65 71 -119 107 -196 133 -159 54 -313 0 -498 -172 -40 -37 -76 -67
-82 -67 -5 0 -43 30 -83 67 -194 175 -345 226 -503 172z"/>
<path d="M590 2503 l0 -153 85 0 c102 0 147 16 175 62 24 40 27 122 6 173 -21
48 -56 62 -169 66 l-97 4 0 -152z m178 60 c17 -23 15 -94 -4 -121 -10 -14 -25
-22 -45 -22 l-29 0 0 86 0 87 33 -7 c17 -3 38 -14 45 -23z"/>
<path d="M1130 2643 c-51 -26 -80 -76 -80 -135 0 -106 50 -158 154 -158 41 0
68 6 91 20 85 52 86 202 3 263 -38 28 -123 33 -168 10z m114 -66 c28 -21 34
-105 9 -136 -44 -55 -113 -15 -113 65 0 70 55 107 104 71z"/>
<path d="M1550 2505 l0 -155 45 0 45 0 0 60 0 60 50 0 50 0 0 -60 0 -60 50 0
51 0 -3 153 -3 152 -47 3 -48 3 0 -55 0 -56 -50 0 -50 0 0 55 0 55 -45 0 -45
0 0 -155z"/>
<path d="M1900 2505 l0 -155 130 0 130 0 0 35 0 35 -85 0 -85 0 0 30 0 30 75
0 75 0 0 30 0 30 -75 0 c-73 0 -75 1 -75 25 0 25 1 25 80 25 l80 0 0 35 0 35
-125 0 -125 0 0 -155z"/>
<path d="M2540 2505 l0 -155 120 0 120 0 0 35 0 34 -72 3 -73 3 -3 118 -3 117
-44 0 -45 0 0 -155z"/>
<path d="M2780 2620 l0 -40 50 0 50 0 0 -115 0 -115 45 0 45 0 0 115 0 115 50
0 50 0 0 40 0 40 -145 0 -145 0 0 -40z"/>
<path d="M3110 2506 l0 -156 50 0 50 0 0 60 0 60 50 0 50 0 0 -60 0 -60 45 0
45 0 0 155 0 155 -45 0 -45 0 0 -55 0 -55 -49 0 -50 0 -3 53 -3 52 -47 3 -48
3 0 -155z"/>
<path d="M3534 2641 c-50 -23 -74 -68 -74 -144 0 -60 27 -112 70 -134 34 -17
125 -16 160 2 30 16 65 69 56 84 -3 5 -20 11 -38 15 -27 5 -35 2 -53 -20 -25
-32 -72 -36 -92 -8 -18 24 -16 105 3 132 20 29 68 30 87 2 12 -17 21 -20 56
-14 22 4 41 10 41 14 0 18 -46 64 -76 76 -45 19 -91 17 -140 -5z"/>
<path d="M4130 2503 l0 -153 50 0 50 0 0 65 c0 63 1 65 20 55 12 -6 33 -36 47
-66 l27 -54 53 0 53 0 -21 43 c-12 23 -32 54 -45 68 l-24 25 24 14 c36 19 49
63 31 105 -16 41 -26 43 -163 47 l-102 3 0 -152z m178 63 c5 -23 -14 -36 -50
-36 -25 0 -28 4 -28 31 0 29 2 30 37 27 28 -2 39 -8 41 -22z"/>
<path d="M4460 2505 l0 -155 130 0 130 0 0 35 0 35 -80 0 -80 0 0 30 0 30 70
0 70 0 0 30 0 30 -70 0 c-68 0 -70 1 -70 25 0 24 2 25 75 25 l75 0 0 35 0 35
-125 0 -125 0 0 -155z"/>
<path d="M2285 2638 c-3 -7 -27 -73 -55 -147 -27 -73 -50 -135 -50 -137 0 -2
20 -4 45 -4 39 0 47 3 55 25 9 22 15 25 64 25 49 0 54 -2 60 -25 6 -22 11 -25
56 -25 l50 0 -26 68 c-13 37 -39 104 -56 150 l-31 82 -54 0 c-34 0 -55 -5 -58
-12z m84 -155 c1 -8 -11 -13 -30 -13 -33 0 -33 3 -7 70 l10 25 13 -35 c8 -19
14 -41 14 -47z"/>
<path d="M3862 2598 c-11 -29 -36 -95 -56 -146 -20 -52 -36 -96 -36 -98 0 -2
20 -4 45 -4 39 0 47 3 55 25 9 22 15 25 64 25 49 0 54 -2 60 -25 6 -22 11 -25
56 -25 l49 0 -28 78 c-16 42 -41 110 -56 150 l-27 72 -53 0 -54 0 -19 -52z
m98 -120 c0 -5 -13 -8 -30 -8 -16 0 -30 1 -30 3 0 2 7 25 17 52 l16 49 13 -45
c8 -24 14 -47 14 -51z"/>
<path d="M910 2390 l0 -40 45 0 45 0 0 40 0 40 -45 0 -45 0 0 -40z"/>
<path d="M1400 2390 l0 -40 45 0 45 0 0 40 0 40 -45 0 -45 0 0 -40z"/>
</g>
</svg>
