<?xml version="1.0" standalone="no"?>
<!DOCTYPE svg PUBLIC "-//W3C//DTD SVG 20010904//EN"
 "http://www.w3.org/TR/2001/REC-SVG-20010904/DTD/svg10.dtd">
<svg version="1.0" xmlns="http://www.w3.org/2000/svg"
 width="860.000000pt" height="605.000000pt" viewBox="0 0 860.000000 605.000000"
 preserveAspectRatio="xMidYMid meet">

<g transform="translate(0.000000,605.000000) scale(0.100000,-0.100000)"
fill="#000000" stroke="none">
<path d="M4214 5631 c-79 -29 -143 -70 -169 -110 -48 -75 -2684 -4671 -2730
-4760 -46 -91 33 -293 136 -347 24 -12 406 -14 2856 -14 l2828 0 36 24 c75 51
135 190 127 291 -5 57 -43 127 -861 1550 -231 402 -743 1295 -1139 1985 -416
725 -736 1271 -757 1293 -20 21 -67 54 -105 73 -80 40 -141 44 -222 15z m228
-1398 c108 -33 231 -155 244 -241 17 -108 -56 -1214 -115 -1745 -10 -86 -37
-138 -98 -184 -36 -28 -111 -53 -156 -53 -88 0 -188 73 -220 160 -10 29 -27
165 -47 375 -73 794 -106 1410 -81 1486 16 49 126 153 193 184 95 43 183 49
280 18z m13 -2560 c71 -23 157 -110 174 -177 25 -101 -28 -200 -140 -261 -42
-22 -70 -30 -130 -33 -104 -6 -174 16 -241 77 -112 100 -117 214 -15 319 51
53 85 72 157 89 62 14 122 9 195 -14z"/>
</g>
</svg>
